<svg xmlns="http://www.w3.org/2000/svg" xmlns:xlink="http://www.w3.org/1999/xlink" width="500" zoomAndPan="magnify" viewBox="0 0 375 374.999991" height="500" preserveAspectRatio="xMidYMid meet" version="1.0"><defs><clipPath id="a538484808"><path d="M 61.171875 55 L 313.921875 55 L 313.921875 321 L 61.171875 321 Z M 61.171875 55 " clip-rule="nonzero"/></clipPath></defs><g clip-path="url(#a538484808)"><path fill="#3d54ff" d="M 196.949219 58.410156 C 185.402344 58.210938 176.132812 60.609375 169.179688 65.605469 C 162.226562 70.597656 157.472656 76.632812 154.914062 83.703125 C 152.757812 89.578125 152.117188 94.972656 152.996094 99.886719 C 153.875 104.800781 155.554688 109.4375 157.992188 113.832031 C 160.429688 118.230469 163.503906 122.464844 167.261719 126.460938 C 170.976562 130.496094 174.695312 134.53125 178.449219 138.648438 C 189.238281 150.996094 199.667969 163.742188 209.777344 176.886719 C 219.886719 190.035156 228.558594 202.460938 235.789062 214.25 C 245.179688 216.007812 254.128906 217.882812 262.5625 219.84375 C 270.992188 221.800781 278.546875 223.679688 285.21875 225.4375 C 291.890625 227.195312 297.566406 228.753906 302.28125 230.152344 C 306.996094 231.511719 310.433594 232.390625 312.589844 232.789062 C 313.546875 233.589844 313.828125 234.546875 313.308594 235.746094 C 312.828125 236.945312 311.511719 237.105469 309.351562 236.34375 C 306.394531 235.1875 302.480469 233.90625 297.605469 232.507812 C 292.691406 231.152344 287.136719 229.671875 280.863281 228.113281 C 274.589844 226.554688 267.875 224.996094 260.722656 223.398438 C 253.570312 221.839844 246.257812 220.363281 238.828125 219.003906 C 245.101562 231.351562 248.335938 242.5 248.535156 252.367188 C 248.734375 262.277344 246.578125 271.027344 242.0625 278.699219 C 236.949219 287.53125 229.4375 294.882812 219.40625 300.757812 C 209.378906 306.632812 198.386719 311.148438 186.320312 314.265625 C 174.253906 317.378906 161.867188 319.296875 149.121094 320.019531 C 136.375 320.699219 124.707031 320.257812 114.117188 318.699219 C 109.402344 317.898438 104.527344 316.941406 99.410156 315.742188 C 94.296875 314.582031 89.503906 312.90625 84.988281 310.746094 C 76.554688 306.832031 70.480469 301.917969 66.765625 296.042969 C 63.050781 290.167969 61.171875 283.894531 61.171875 277.222656 C 61.171875 271.949219 62.128906 266.671875 64.128906 261.480469 C 66.085938 256.285156 68.882812 251.328125 72.519531 246.613281 C 76.15625 241.898438 80.511719 237.703125 85.585938 233.988281 C 90.660156 230.273438 96.253906 227.316406 102.328125 225.15625 C 114.078125 221.042969 126.941406 218.203125 140.847656 216.644531 C 154.753906 215.085938 168.179688 213.890625 181.125 213.128906 C 178.167969 207.253906 173.375 200.582031 166.703125 193.152344 C 160.027344 185.71875 153.035156 178.207031 145.683594 170.652344 C 138.332031 163.101562 131.378906 155.988281 124.824219 149.316406 C 118.273438 142.644531 113.515625 137.25 110.558594 133.132812 C 104.285156 124.300781 101.488281 115.113281 102.167969 105.480469 C 102.847656 95.890625 106.765625 87.140625 113.917969 79.308594 C 121.070312 71.476562 131.5 65.242188 145.242188 60.648438 C 158.910156 55.972656 175.773438 54.296875 195.75 55.453125 C 205.742188 56.054688 214.253906 58.929688 221.324219 64.125 C 228.398438 69.320312 233.273438 76.3125 236.03125 85.144531 C 238.585938 83.984375 241.105469 82.785156 243.660156 81.625 C 246.21875 80.46875 248.457031 79.070312 250.414062 77.511719 C 252.371094 75.953125 253.851562 74.195312 254.808594 72.238281 C 255.769531 70.277344 255.96875 67.839844 255.410156 64.882812 C 255.007812 63.324219 255.367188 62.566406 256.449219 62.6875 C 257.527344 62.765625 258.167969 63.40625 258.367188 64.605469 C 258.964844 67.921875 258.765625 70.796875 257.765625 73.117188 C 256.769531 75.472656 255.25 77.472656 253.210938 79.148438 C 251.132812 80.828125 248.65625 82.386719 245.699219 83.863281 C 242.742188 85.34375 239.707031 86.863281 236.589844 88.417969 C 236.988281 90.578125 237.1875 92.894531 237.1875 95.332031 C 237.1875 97.769531 236.910156 100.085938 236.308594 102.246094 C 235.109375 105.761719 233.273438 108.121094 230.714844 109.316406 C 228.15625 110.476562 225.917969 110.675781 223.960938 109.917969 C 222.203125 109.316406 220.804688 107.917969 219.847656 105.640625 C 218.847656 103.402344 219.167969 100.6875 220.726562 97.570312 C 221.882812 95.011719 223.5625 92.933594 225.71875 91.257812 C 227.878906 89.578125 230.234375 88.058594 232.792969 86.703125 C 230.636719 78.671875 226.597656 72.195312 220.726562 67.28125 C 214.890625 62.328125 206.941406 59.371094 196.949219 58.410156 Z M 101.371094 229.832031 C 96.09375 231.988281 91.140625 234.746094 86.503906 238.0625 C 81.871094 241.378906 77.996094 245.214844 74.757812 249.53125 C 71.519531 253.847656 69.082031 258.402344 67.40625 263.199219 C 65.726562 267.992188 65.007812 272.746094 65.207031 277.460938 C 65.605469 283.136719 67.367188 288.449219 70.480469 293.324219 C 73.597656 298.242188 78.632812 302.554688 85.464844 306.273438 C 93.097656 310.386719 102.128906 312.824219 112.519531 313.625 C 122.90625 314.425781 133.175781 313.664062 143.40625 311.425781 C 153.59375 309.1875 163.105469 305.433594 171.9375 300.238281 C 180.765625 295.042969 187.441406 288.410156 191.914062 280.378906 C 193.875 277.0625 195.113281 272.988281 195.589844 268.191406 C 196.070312 263.398438 195.949219 258.242188 195.152344 252.769531 C 194.351562 247.292969 192.996094 241.539062 191.035156 235.585938 C 189.078125 229.59375 186.519531 223.757812 183.402344 218.085938 C 177.929688 217.882812 171.777344 217.925781 165.023438 218.246094 C 158.269531 218.523438 151.238281 219.125 144.003906 220.003906 C 136.734375 220.882812 129.460938 222.121094 122.109375 223.679688 C 114.757812 225.195312 107.84375 227.273438 101.371094 229.832031 Z M 233.390625 90.136719 C 230.835938 91.136719 228.796875 92.496094 227.199219 94.253906 C 225.640625 96.011719 224.441406 97.769531 223.683594 99.527344 C 222.882812 101.285156 222.601562 102.84375 222.804688 104.242188 C 223.003906 105.601562 223.683594 106.480469 224.882812 106.878906 C 226.039062 107.28125 227.519531 107 229.277344 106 C 231.035156 105.042969 232.3125 103.363281 233.113281 101.007812 C 233.710938 99.046875 233.953125 97.128906 233.832031 95.253906 C 233.75 93.414062 233.59375 91.738281 233.390625 90.136719 Z M 233.390625 90.136719 " fill-opacity="1" fill-rule="nonzero"/></g></svg>